<svg xmlns="http://www.w3.org/2000/svg" viewBox="0 0 220 80">
  <g fill="#232020">
    <path d="M 0 16 L 0 46 C 0 64, 14 76, 32 76 C 50 76, 64 64, 64 46 L 64 16 L 52 16 L 52 46 C 52 56, 44 64, 32 64 C 20 64, 12 56, 12 46 L 12 16 Z"></path>
    <path d="M 70 4 L 82 4 L 82 16 L 98 16 L 98 28 L 82 28 L 82 60 C 82 64, 86 64, 90 64 L 98 64 L 98 76 L 86 76 C 76 76, 70 70, 70 60 Z"></path>
    <path d="M 104 4 L 116 4 L 116 16 L 132 16 L 132 28 L 116 28 L 116 60 C 116 64, 120 64, 124 64 L 132 64 L 132 76 L 120 76 C 110 76, 104 70, 104 60 Z"></path>
    <path d="M 138 16 L 138 46 C 138 64, 152 76, 170 76 C 188 76, 202 64, 202 46 L 202 16 L 190 16 L 190 46 C 190 56, 182 64, 170 64 C 158 64, 150 56, 150 46 L 150 16 Z"></path>
  </g>
  <circle cx="213" cy="71" r="5" fill="#232020"></circle>
</svg>